<svg xmlns="http://www.w3.org/2000/svg" xmlns:xlink="http://www.w3.org/1999/xlink" width="400" zoomAndPan="magnify" viewBox="0 0 300 299.999988" height="400" preserveAspectRatio="xMidYMid meet" version="1.0"><defs><g/></defs><g fill="#fafafa" fill-opacity="1"><g transform="translate(144.304864, 194.178186)"><g><path d="M 44.75 -91.953125 L 4.375 -91.953125 L 4.375 -89.765625 L 16.421875 -89.765625 L 16.421875 -2.1875 L 4.375 -2.1875 L 4.375 0 L 44.75 0 C 51.132812 0 56.96875 -1.113281 62.25 -3.34375 C 67.539062 -5.582031 72.054688 -8.753906 75.796875 -12.859375 C 79.535156 -16.960938 82.429688 -21.910156 84.484375 -27.703125 C 86.535156 -33.492188 87.5625 -39.945312 87.5625 -47.0625 C 87.5625 -53.726562 86.515625 -59.816406 84.421875 -65.328125 C 82.328125 -70.847656 79.382812 -75.59375 75.59375 -79.5625 C 71.8125 -83.53125 67.296875 -86.585938 62.046875 -88.734375 C 56.804688 -90.878906 51.039062 -91.953125 44.75 -91.953125 Z M 72.515625 -50.484375 L 72.515625 -43.640625 C 72.515625 -35.523438 71.757812 -28.800781 70.25 -23.46875 C 68.75 -18.132812 66.722656 -13.890625 64.171875 -10.734375 C 61.617188 -7.585938 58.65625 -5.375 55.28125 -4.09375 C 51.90625 -2.820312 48.300781 -2.1875 44.46875 -2.1875 L 29.6875 -2.1875 L 29.6875 -89.765625 L 44.46875 -89.765625 C 48.207031 -89.765625 51.765625 -89.101562 55.140625 -87.78125 C 58.515625 -86.457031 61.5 -84.265625 64.09375 -81.203125 C 66.695312 -78.148438 68.75 -74.113281 70.25 -69.09375 C 71.757812 -64.082031 72.515625 -57.878906 72.515625 -50.484375 Z M 72.515625 -50.484375 "/></g></g></g><g fill="#fafafa" fill-opacity="1"><g transform="translate(58.838501, 196.199984)"><g><path d="M 3.75 -2.21875 L 3.75 0 L 29.890625 0 L 29.890625 -2.21875 L 17.9375 -2.21875 L 17.9375 -87.15625 L 71.71875 1.109375 L 76.453125 1.109375 L 76.453125 -91.1875 L 88.40625 -91.1875 L 88.40625 -93.40625 L 62.265625 -93.40625 L 62.265625 -91.1875 L 74.21875 -91.1875 L 74.21875 -22.9375 L 31.140625 -93.40625 L 3.75 -93.40625 L 3.75 -91.1875 L 15.703125 -91.1875 L 15.703125 -2.21875 Z M 3.75 -2.21875 "/></g></g></g></svg>