<svg xmlns="http://www.w3.org/2000/svg" xmlns:xlink="http://www.w3.org/1999/xlink" width="300" zoomAndPan="magnify" viewBox="0 0 224.87999 225" height="300" preserveAspectRatio="xMidYMid meet" version="1.0"><defs><g/><clipPath id="d8bd84ec91"><path d="M 34.390625 103.402344 L 189.714844 103.402344 L 189.714844 121.421875 L 34.390625 121.421875 Z M 34.390625 103.402344 " clip-rule="nonzero"/></clipPath></defs><g fill="#fafafa" fill-opacity="1"><g transform="translate(108.170918, 145.615974)"><g><path d="M 33.53125 -68.921875 L 3.28125 -68.921875 L 3.28125 -67.28125 L 12.3125 -67.28125 L 12.3125 -1.640625 L 3.28125 -1.640625 L 3.28125 0 L 33.53125 0 C 38.320312 0 42.695312 -0.835938 46.65625 -2.515625 C 50.625 -4.191406 54.007812 -6.566406 56.8125 -9.640625 C 59.625 -12.710938 61.796875 -16.421875 63.328125 -20.765625 C 64.867188 -25.109375 65.640625 -29.945312 65.640625 -35.28125 C 65.640625 -40.269531 64.851562 -44.832031 63.28125 -48.96875 C 61.707031 -53.101562 59.5 -56.65625 56.65625 -59.625 C 53.820312 -62.601562 50.4375 -64.894531 46.5 -66.5 C 42.570312 -68.113281 38.25 -68.921875 33.53125 -68.921875 Z M 54.359375 -37.84375 L 54.359375 -32.71875 C 54.359375 -26.632812 53.789062 -21.59375 52.65625 -17.59375 C 51.53125 -13.59375 50.007812 -10.410156 48.09375 -8.046875 C 46.1875 -5.691406 43.96875 -4.035156 41.4375 -3.078125 C 38.90625 -2.117188 36.203125 -1.640625 33.328125 -1.640625 L 22.25 -1.640625 L 22.25 -67.28125 L 33.328125 -67.28125 C 36.128906 -67.28125 38.796875 -66.785156 41.328125 -65.796875 C 43.859375 -64.804688 46.097656 -63.164062 48.046875 -60.875 C 49.992188 -58.582031 51.53125 -55.554688 52.65625 -51.796875 C 53.789062 -48.035156 54.359375 -43.382812 54.359375 -37.84375 Z M 54.359375 -37.84375 "/></g></g></g><g fill="#fafafa" fill-opacity="1"><g transform="translate(44.105336, 147.131524)"><g><path d="M 2.8125 -1.671875 L 2.8125 0 L 22.40625 0 L 22.40625 -1.671875 L 13.4375 -1.671875 L 13.4375 -65.328125 L 53.765625 0.828125 L 57.3125 0.828125 L 57.3125 -68.359375 L 66.265625 -68.359375 L 66.265625 -70.03125 L 46.6875 -70.03125 L 46.6875 -68.359375 L 55.640625 -68.359375 L 55.640625 -17.1875 L 23.34375 -70.03125 L 2.8125 -70.03125 L 2.8125 -68.359375 L 11.78125 -68.359375 L 11.78125 -1.671875 Z M 2.8125 -1.671875 "/></g></g></g><g clip-path="url(#d8bd84ec91)"><path fill="#000000" d="M 34.390625 103.402344 L 189.75 103.402344 L 189.75 121.421875 L 34.390625 121.421875 Z M 34.390625 103.402344 " fill-opacity="1" fill-rule="nonzero"/></g><g fill="#fafafa" fill-opacity="1"><g transform="translate(50.489183, 114.896848)"><g><path d="M 5.640625 -5.640625 L 5.640625 0 L 5.140625 0 L 1.515625 -4.578125 L 1.515625 0 L 0.921875 0 L 0.921875 -5.640625 L 1.40625 -5.640625 L 5.046875 -1.0625 L 5.046875 -5.640625 Z M 5.640625 -5.640625 "/></g></g></g><g fill="#fafafa" fill-opacity="1"><g transform="translate(59.835392, 114.896848)"><g><path d="M 0.921875 -5.640625 L 1.515625 -5.640625 L 1.515625 0 L 0.921875 0 Z M 0.921875 -5.640625 "/></g></g></g><g fill="#fafafa" fill-opacity="1"><g transform="translate(65.060945, 114.896848)"><g><path d="M 2.46875 0.046875 C 2.050781 0.046875 1.648438 -0.0195312 1.265625 -0.15625 C 0.878906 -0.289062 0.582031 -0.46875 0.375 -0.6875 L 0.609375 -1.140625 C 0.816406 -0.941406 1.085938 -0.773438 1.421875 -0.640625 C 1.765625 -0.515625 2.113281 -0.453125 2.46875 -0.453125 C 2.976562 -0.453125 3.359375 -0.546875 3.609375 -0.734375 C 3.859375 -0.921875 3.984375 -1.160156 3.984375 -1.453125 C 3.984375 -1.679688 3.914062 -1.863281 3.78125 -2 C 3.644531 -2.132812 3.476562 -2.238281 3.28125 -2.3125 C 3.082031 -2.382812 2.804688 -2.460938 2.453125 -2.546875 C 2.023438 -2.648438 1.6875 -2.75 1.4375 -2.84375 C 1.1875 -2.945312 0.96875 -3.101562 0.78125 -3.3125 C 0.601562 -3.519531 0.515625 -3.796875 0.515625 -4.140625 C 0.515625 -4.429688 0.585938 -4.691406 0.734375 -4.921875 C 0.890625 -5.148438 1.125 -5.332031 1.4375 -5.46875 C 1.75 -5.613281 2.132812 -5.6875 2.59375 -5.6875 C 2.914062 -5.6875 3.226562 -5.640625 3.53125 -5.546875 C 3.84375 -5.460938 4.113281 -5.34375 4.34375 -5.1875 L 4.140625 -4.71875 C 3.910156 -4.875 3.660156 -4.988281 3.390625 -5.0625 C 3.117188 -5.144531 2.851562 -5.1875 2.59375 -5.1875 C 2.101562 -5.1875 1.734375 -5.085938 1.484375 -4.890625 C 1.234375 -4.703125 1.109375 -4.457031 1.109375 -4.15625 C 1.109375 -3.9375 1.175781 -3.753906 1.3125 -3.609375 C 1.445312 -3.472656 1.617188 -3.367188 1.828125 -3.296875 C 2.035156 -3.222656 2.3125 -3.144531 2.65625 -3.0625 C 3.070312 -2.957031 3.40625 -2.851562 3.65625 -2.75 C 3.914062 -2.65625 4.132812 -2.503906 4.3125 -2.296875 C 4.488281 -2.097656 4.578125 -1.828125 4.578125 -1.484375 C 4.578125 -1.203125 4.5 -0.941406 4.34375 -0.703125 C 4.195312 -0.472656 3.960938 -0.289062 3.640625 -0.15625 C 3.328125 -0.0195312 2.9375 0.046875 2.46875 0.046875 Z M 2.46875 0.046875 "/></g></g></g><g fill="#fafafa" fill-opacity="1"><g transform="translate(72.810502, 114.896848)"><g><path d="M 5.640625 -5.640625 L 5.640625 0 L 5.046875 0 L 5.046875 -2.609375 L 1.515625 -2.609375 L 1.515625 0 L 0.921875 0 L 0.921875 -5.640625 L 1.515625 -5.640625 L 1.515625 -3.125 L 5.046875 -3.125 L 5.046875 -5.640625 Z M 5.640625 -5.640625 "/></g></g></g><g fill="#fafafa" fill-opacity="1"><g transform="translate(82.156712, 114.896848)"><g><path d="M 4.453125 -1.5 L 1.3125 -1.5 L 0.640625 0 L 0.015625 0 L 2.59375 -5.640625 L 3.1875 -5.640625 L 5.765625 0 L 5.140625 0 Z M 4.234375 -1.984375 L 2.890625 -5.015625 L 1.53125 -1.984375 Z M 4.234375 -1.984375 "/></g></g></g><g fill="#fafafa" fill-opacity="1"><g transform="translate(90.728785, 114.896848)"><g><path d="M 5.640625 -5.640625 L 5.640625 0 L 5.140625 0 L 1.515625 -4.578125 L 1.515625 0 L 0.921875 0 L 0.921875 -5.640625 L 1.40625 -5.640625 L 5.046875 -1.0625 L 5.046875 -5.640625 Z M 5.640625 -5.640625 "/></g></g></g><g fill="#fafafa" fill-opacity="1"><g transform="translate(100.074993, 114.896848)"><g><path d="M 2.015625 -5.125 L 0.03125 -5.125 L 0.03125 -5.640625 L 4.59375 -5.640625 L 4.59375 -5.125 L 2.609375 -5.125 L 2.609375 0 L 2.015625 0 Z M 2.015625 -5.125 "/></g></g></g><g fill="#fafafa" fill-opacity="1"><g transform="translate(107.500196, 114.896848)"><g/></g></g><g fill="#fafafa" fill-opacity="1"><g transform="translate(112.403197, 114.896848)"><g/></g></g><g fill="#fafafa" fill-opacity="1"><g transform="translate(117.310487, 114.896848)"><g><path d="M 0.921875 -5.640625 L 3.21875 -5.640625 C 3.8125 -5.640625 4.335938 -5.519531 4.796875 -5.28125 C 5.253906 -5.039062 5.609375 -4.707031 5.859375 -4.28125 C 6.109375 -3.851562 6.234375 -3.367188 6.234375 -2.828125 C 6.234375 -2.273438 6.109375 -1.785156 5.859375 -1.359375 C 5.609375 -0.929688 5.253906 -0.597656 4.796875 -0.359375 C 4.335938 -0.117188 3.8125 0 3.21875 0 L 0.921875 0 Z M 3.1875 -0.515625 C 3.675781 -0.515625 4.109375 -0.613281 4.484375 -0.8125 C 4.859375 -1.007812 5.144531 -1.28125 5.34375 -1.625 C 5.550781 -1.96875 5.65625 -2.367188 5.65625 -2.828125 C 5.65625 -3.273438 5.550781 -3.671875 5.34375 -4.015625 C 5.144531 -4.367188 4.859375 -4.640625 4.484375 -4.828125 C 4.109375 -5.023438 3.675781 -5.125 3.1875 -5.125 L 1.515625 -5.125 L 1.515625 -0.515625 Z M 3.1875 -0.515625 "/></g></g></g><g fill="#fafafa" fill-opacity="1"><g transform="translate(126.761524, 114.896848)"><g><path d="M 4.765625 0 L 3.484375 -1.8125 C 3.335938 -1.800781 3.1875 -1.796875 3.03125 -1.796875 L 1.515625 -1.796875 L 1.515625 0 L 0.921875 0 L 0.921875 -5.640625 L 3.03125 -5.640625 C 3.75 -5.640625 4.3125 -5.46875 4.71875 -5.125 C 5.132812 -4.78125 5.34375 -4.304688 5.34375 -3.703125 C 5.34375 -3.265625 5.226562 -2.894531 5 -2.59375 C 4.78125 -2.289062 4.460938 -2.070312 4.046875 -1.9375 L 5.421875 0 Z M 3.015625 -2.296875 C 3.578125 -2.296875 4.003906 -2.421875 4.296875 -2.671875 C 4.585938 -2.921875 4.734375 -3.265625 4.734375 -3.703125 C 4.734375 -4.160156 4.585938 -4.507812 4.296875 -4.75 C 4.003906 -5 3.578125 -5.125 3.015625 -5.125 L 1.515625 -5.125 L 1.515625 -2.296875 Z M 3.015625 -2.296875 "/></g></g></g><g fill="#fafafa" fill-opacity="1"><g transform="translate(135.381977, 114.896848)"><g><path d="M 3.390625 0.046875 C 2.828125 0.046875 2.316406 -0.078125 1.859375 -0.328125 C 1.410156 -0.578125 1.054688 -0.914062 0.796875 -1.34375 C 0.546875 -1.78125 0.421875 -2.273438 0.421875 -2.828125 C 0.421875 -3.367188 0.546875 -3.851562 0.796875 -4.28125 C 1.054688 -4.71875 1.410156 -5.0625 1.859375 -5.3125 C 2.316406 -5.5625 2.828125 -5.6875 3.390625 -5.6875 C 3.941406 -5.6875 4.441406 -5.5625 4.890625 -5.3125 C 5.347656 -5.070312 5.703125 -4.734375 5.953125 -4.296875 C 6.210938 -3.859375 6.34375 -3.367188 6.34375 -2.828125 C 6.34375 -2.273438 6.210938 -1.78125 5.953125 -1.34375 C 5.703125 -0.90625 5.347656 -0.5625 4.890625 -0.3125 C 4.441406 -0.0703125 3.941406 0.046875 3.390625 0.046875 Z M 3.390625 -0.484375 C 3.835938 -0.484375 4.238281 -0.582031 4.59375 -0.78125 C 4.957031 -0.988281 5.238281 -1.269531 5.4375 -1.625 C 5.644531 -1.976562 5.75 -2.378906 5.75 -2.828125 C 5.75 -3.265625 5.644531 -3.660156 5.4375 -4.015625 C 5.238281 -4.378906 4.957031 -4.660156 4.59375 -4.859375 C 4.238281 -5.054688 3.835938 -5.15625 3.390625 -5.15625 C 2.941406 -5.15625 2.535156 -5.054688 2.171875 -4.859375 C 1.804688 -4.660156 1.519531 -4.378906 1.3125 -4.015625 C 1.113281 -3.660156 1.015625 -3.265625 1.015625 -2.828125 C 1.015625 -2.378906 1.113281 -1.976562 1.3125 -1.625 C 1.519531 -1.269531 1.804688 -0.988281 2.171875 -0.78125 C 2.535156 -0.582031 2.941406 -0.484375 3.390625 -0.484375 Z M 3.390625 -0.484375 "/></g></g></g><g fill="#fafafa" fill-opacity="1"><g transform="translate(144.937847, 114.896848)"><g><path d="M 0.921875 -5.640625 L 1.515625 -5.640625 L 1.515625 -0.515625 L 4.671875 -0.515625 L 4.671875 0 L 0.921875 0 Z M 0.921875 -5.640625 "/></g></g></g><g fill="#fafafa" fill-opacity="1"><g transform="translate(152.477744, 114.896848)"><g><path d="M 0.921875 -5.640625 L 1.515625 -5.640625 L 1.515625 0 L 0.921875 0 Z M 0.921875 -5.640625 "/></g></g></g><g fill="#fafafa" fill-opacity="1"><g transform="translate(157.703298, 114.896848)"><g><path d="M 2.859375 -1.953125 L 2.859375 0 L 2.265625 0 L 2.265625 -1.953125 L 0.015625 -5.640625 L 0.640625 -5.640625 L 2.578125 -2.46875 L 4.515625 -5.640625 L 5.109375 -5.640625 Z M 2.859375 -1.953125 "/></g></g></g><g fill="#fafafa" fill-opacity="1"><g transform="translate(165.614133, 114.896848)"><g><path d="M 4.453125 -1.5 L 1.3125 -1.5 L 0.640625 0 L 0.015625 0 L 2.59375 -5.640625 L 3.1875 -5.640625 L 5.765625 0 L 5.140625 0 Z M 4.234375 -1.984375 L 2.890625 -5.015625 L 1.53125 -1.984375 Z M 4.234375 -1.984375 "/></g></g></g></svg>