<svg xmlns="http://www.w3.org/2000/svg" xmlns:xlink="http://www.w3.org/1999/xlink" width="400" zoomAndPan="magnify" viewBox="0 0 300 299.999988" height="400" preserveAspectRatio="xMidYMid meet" version="1.0"><defs><g/><clipPath id="3d7feaeb78"><path d="M 118.8125 52.933594 L 137.828125 52.933594 L 137.828125 111.828125 L 118.8125 111.828125 Z M 118.8125 52.933594 " clip-rule="nonzero"/></clipPath><clipPath id="bf964bae0f"><path d="M 118.8125 159.960938 L 137.828125 159.960938 L 137.828125 218.855469 L 118.8125 218.855469 Z M 118.8125 159.960938 " clip-rule="nonzero"/></clipPath><clipPath id="3ca3f9d7a1"><path d="M 138.777344 126.6875 L 197.667969 126.6875 L 197.667969 145.703125 L 138.777344 145.703125 Z M 138.777344 126.6875 " clip-rule="nonzero"/></clipPath></defs><g fill="#f8f8f8" fill-opacity="1"><g transform="translate(42.606639, 177.687396)"><g><path d="M 116.265625 -142.5625 L 122.078125 -142.5625 L 122.078125 0 L 117.46875 0 L 23.890625 -130.921875 L 23.890625 0 L 18.078125 0 L 18.078125 -142.5625 L 22.890625 -142.5625 L 116.265625 -11.640625 Z M 116.265625 -142.5625 "/></g></g></g><g clip-path="url(#3d7feaeb78)"><path fill="#000000" d="M 118.8125 111.828125 L 118.8125 52.921875 L 137.828125 52.921875 L 137.828125 111.828125 Z M 118.8125 111.828125 " fill-opacity="1" fill-rule="nonzero"/></g><g clip-path="url(#bf964bae0f)"><path fill="#000000" d="M 118.8125 218.855469 L 118.8125 159.945312 L 137.828125 159.945312 L 137.828125 218.855469 Z M 118.8125 218.855469 " fill-opacity="1" fill-rule="nonzero"/></g><g clip-path="url(#3ca3f9d7a1)"><path fill="#000000" d="M 138.777344 126.6875 L 197.683594 126.6875 L 197.683594 145.703125 L 138.777344 145.703125 Z M 138.777344 126.6875 " fill-opacity="1" fill-rule="nonzero"/></g><g fill="#f8f8f8" fill-opacity="1"><g transform="translate(120.014813, 276.265122)"><g><path d="M 18.078125 0 L 18.078125 -142.5625 L 48.796875 -142.5625 C 103.140625 -142.5625 130.3125 -119.003906 130.3125 -71.890625 C 130.3125 -48.859375 123.71875 -31.117188 110.53125 -18.671875 C 97.351562 -6.222656 78.046875 0 52.609375 0 Z M 24.296875 -5.421875 L 52 -5.421875 C 99.925781 -5.421875 123.890625 -27.578125 123.890625 -71.890625 C 123.890625 -93.835938 117.832031 -110.195312 105.71875 -120.96875 C 93.601562 -131.75 74.960938 -137.140625 49.796875 -137.140625 L 24.296875 -137.140625 Z M 24.296875 -5.421875 "/></g></g></g></svg>