<svg xmlns="http://www.w3.org/2000/svg" xmlns:xlink="http://www.w3.org/1999/xlink" width="400" zoomAndPan="magnify" viewBox="0 0 300 299.999988" height="400" preserveAspectRatio="xMidYMid meet" version="1.0"><defs><g/><clipPath id="60e734488c"><path d="M 118.8125 52.933594 L 137.828125 52.933594 L 137.828125 111.828125 L 118.8125 111.828125 Z M 118.8125 52.933594 " clip-rule="nonzero"/></clipPath><clipPath id="a2e94ab44b"><path d="M 118.8125 159.960938 L 137.828125 159.960938 L 137.828125 218.855469 L 118.8125 218.855469 Z M 118.8125 159.960938 " clip-rule="nonzero"/></clipPath></defs><g clip-path="url(#60e734488c)"><path fill="#000000" d="M 118.8125 111.828125 L 118.8125 52.921875 L 137.828125 52.921875 L 137.828125 111.828125 Z M 118.8125 111.828125 " fill-opacity="1" fill-rule="nonzero"/></g><g fill="#f8f8f8" fill-opacity="1"><g transform="translate(45.340125, 195.087399)"><g><path d="M 112.640625 -142.5625 L 127.5 -142.5625 L 127.5 0 L 114.25 0 L 31.328125 -116.46875 L 31.328125 0 L 16.46875 0 L 16.46875 -142.5625 L 29.71875 -142.5625 L 112.640625 -26.109375 Z M 112.640625 -142.5625 "/></g></g></g><g clip-path="url(#a2e94ab44b)"><path fill="#000000" d="M 118.8125 218.855469 L 118.8125 159.945312 L 137.828125 159.945312 L 137.828125 218.855469 Z M 118.8125 218.855469 " fill-opacity="1" fill-rule="nonzero"/></g><g fill="#f8f8f8" fill-opacity="1"><g transform="translate(114.091997, 248.863475)"><g><path d="M 16.46875 0 L 16.46875 -142.5625 L 52.609375 -142.5625 C 107.765625 -142.5625 135.34375 -119.070312 135.34375 -72.09375 C 135.34375 -57.09375 132.257812 -44.203125 126.09375 -33.421875 C 119.9375 -22.648438 111.101562 -14.382812 99.59375 -8.625 C 88.082031 -2.875 74.296875 0 58.234375 0 Z M 31.921875 -13.65625 L 57.421875 -13.65625 C 77.910156 -13.65625 93.40625 -18.539062 103.90625 -28.3125 C 114.414062 -38.082031 119.671875 -52.335938 119.671875 -71.078125 C 119.671875 -90.492188 114.347656 -104.984375 103.703125 -114.546875 C 93.066406 -124.117188 76.835938 -128.90625 55.015625 -128.90625 L 31.921875 -128.90625 Z M 31.921875 -13.65625 "/></g></g></g></svg>