<svg xmlns="http://www.w3.org/2000/svg" xmlns:xlink="http://www.w3.org/1999/xlink" viewBox="0,0,256,256" width="48px" height="48px" fill-rule="nonzero"><g fill="#ffffff" fill-rule="nonzero" stroke="none" stroke-width="1" stroke-linecap="butt" stroke-linejoin="miter" stroke-miterlimit="10" stroke-dasharray="" stroke-dashoffset="0" font-family="none" font-weight="none" font-size="none" text-anchor="none" style="mix-blend-mode: normal"><g transform="scale(5.33333,5.33333)"><path d="M4.002,43.998l14.509,-16.789l-15.509,-20.211h13l10.613,13.832c0.172,0.196 0.469,0.227 0.68,0.065c0.219,-0.168 0.26,-0.483 0.092,-0.701l-1.324,-1.724l9.915,-11.472h6.024l-13.772,15.936l16.167,21.064h-12.999l-10.053,-13.097l-11.319,13.097zM33.121,43.002l-26.1,-34.008h9.256l-0.767,-1h-10.489l26.868,35.008zM36.786,39.998l-22.254,-29h-3.917l22.259,29zM24.01,46.998c11.035,0 19.992,0.225 19.992,0.501c0,0.276 -8.957,0.501 -19.992,0.501c-11.035,0 -19.992,-0.225 -19.992,-0.501c0,-0.276 8.957,-0.501 19.992,-0.501z"></path></g></g></svg>